<?xml version="1.0" standalone="no"?><!DOCTYPE svg PUBLIC "-//W3C//DTD SVG 1.1//EN" "http://www.w3.org/Graphics/SVG/1.1/DTD/svg11.dtd"><svg class="icon" width="64px" height="64.00px" viewBox="0 0 1024 1024" version="1.1" xmlns="http://www.w3.org/2000/svg"><path d="M844.8 404.48h-136.704V148.48c0-42.496-34.304-76.8-76.8-76.8h-450.56c-42.496 0-76.8 34.304-76.8 76.8v721.92c0 42.496 34.304 76.8 76.8 76.8h450.56c4.096 0 8.192-0.512 11.776-1.024 4.096 0.512 8.192 1.024 11.776 1.024h189.44c42.496 0 76.8-34.304 76.8-76.8V481.28c0.512-42.496-33.792-76.8-76.288-76.8zM155.136 870.4V148.48c0-14.336 11.264-25.6 25.6-25.6h450.56c14.336 0 25.6 11.264 25.6 25.6v721.92c0 1.536 0 3.072-0.512 4.096-1.536 8.192-7.168 15.872-15.36 18.944-1.536 0.512-2.56 1.024-4.096 1.536-2.048 0.512-4.096 0.512-6.144 0.512h-450.56c-13.312 0.512-25.088-10.752-25.088-25.088z m715.264 0c0 14.336-11.264 25.6-25.6 25.6h-140.8c0.512-1.024 0.512-1.536 1.024-2.56s0.512-2.048 1.024-3.584c0.512-1.024 0.512-2.048 0.512-3.072 0-1.024 0.512-2.048 0.512-3.072 0-1.536 0.512-2.56 0.512-4.096 0-1.024 0-1.536 0.512-2.56 0-2.048 0.512-4.608 0.512-6.656V455.68H844.8c14.336 0 25.6 11.264 25.6 25.6v389.12z"  /><path d="M547.84 353.28H266.24c-14.336 0-25.6 11.264-25.6 25.6s11.264 25.6 25.6 25.6h281.6c14.336 0 25.6-11.264 25.6-25.6s-11.264-25.6-25.6-25.6zM547.84 542.72H266.24c-14.336 0-25.6 11.264-25.6 25.6s11.264 25.6 25.6 25.6h281.6c14.336 0 25.6-11.264 25.6-25.6s-11.264-25.6-25.6-25.6z"  /></svg>