<?xml version="1.0" standalone="no"?><!DOCTYPE svg PUBLIC "-//W3C//DTD SVG 1.1//EN" "http://www.w3.org/Graphics/SVG/1.1/DTD/svg11.dtd"><svg class="icon" width="64px" height="64.00px" viewBox="0 0 1024 1024" version="1.1" xmlns="http://www.w3.org/2000/svg"><path d="M512 472.5248c79.3088 0 143.8208-64.6656 143.8208-144.0768C655.8208 248.9856 591.3088 184.32 512 184.32S368.1792 248.9856 368.1792 328.3968c0 79.4624 64.5632 144.128 143.8208 144.128z m0-236.9024c51.0464 0 92.6208 41.6256 92.6208 92.7744S563.0464 421.2224 512 421.2224s-92.6208-41.6256-92.6208-92.8256c0-51.1488 41.5744-92.7744 92.6208-92.7744zM459.9808 788.3776H235.52v-48.4864c0-78.6432 63.8976-142.6432 142.3872-142.6432h204.3392c14.1312 0 25.6-11.4688 25.6-25.6512s-11.4688-25.6512-25.6-25.6512h-204.288c-106.752 0-193.5872 86.9888-193.5872 193.9456V839.68h275.6608c14.1312 0 25.6-11.4688 25.6-25.6512-0.0512-14.1824-11.52-25.6512-25.6512-25.6512zM811.3152 571.5968c-37.7856-37.8368-99.2768-37.8368-137.0624 0-31.5392 31.5904-36.6592 79.616-15.616 116.6848l-107.4176 107.6224c-9.984 10.0352-9.984 26.2656 0 36.2496 5.0176 5.0176 11.5712 7.5264 18.1248 7.5264s13.1072-2.5088 18.1248-7.5264l36.5056-36.5568 8.192 8.192c5.0176 5.0176 11.5712 7.5264 18.1248 7.5264s13.1072-2.5088 18.1248-7.5264c9.984-10.0352 9.984-26.2656 0-36.2496l-8.192-8.192 34.6624-34.7648c14.4384 8.2944 30.8736 12.8 47.9744 12.8 25.9072 0 50.2272-10.0864 68.5568-28.4672 37.6832-37.8368 37.6832-99.4816-0.1024-137.3184z m-36.1984 101.0688c-17.8176 17.8688-46.848 17.8688-64.6656 0-17.8176-17.8688-17.8176-46.9504 0-64.768 8.9088-8.9088 20.6336-13.4144 32.3584-13.4144s23.3984 4.4544 32.3584 13.4144c17.7664 17.8176 17.7664 46.8992-0.0512 64.768z" /></svg>